<svg xmlns="http://www.w3.org/2000/svg" width="1000" height="1000" viewBox="0 0 1000 1000" version="1.1">
	<path d="M 242.235 122.750 C 96.759 372.492, 23 499.414, 23 500.003 C 23 500.399, 76.521 592.698, 141.935 705.112 L 260.871 909.500 500.021 909.500 L 739.172 909.500 857.698 706 C 922.888 594.075, 976.435 501.778, 976.691 500.896 C 976.960 499.971, 926.752 412.752, 857.963 294.646 L 738.769 90 500.041 90 L 261.312 90 242.235 122.750 M 487.500 257.691 C 427.714 260.250, 361.988 278.039, 310 305.734 C 267.874 328.175, 238.011 350.866, 198.498 390.457 C 176.585 412.413, 172.942 417.143, 168.225 429.758 C 164.828 438.843, 163.960 457.263, 166.470 467 C 174.157 496.822, 200.211 517.274, 230.500 517.262 C 241.610 517.258, 249.978 515.226, 260.869 509.888 C 268.572 506.112, 271.036 504.026, 291.873 483.643 C 304.322 471.464, 319.231 457.704, 325.004 453.063 C 423.383 373.988, 562.244 367.783, 667.897 437.743 C 684.430 448.691, 696.709 458.911, 717.312 478.871 C 732.700 493.779, 736.804 497.195, 743.528 500.687 C 754.133 506.195, 762.327 508.237, 774 508.283 C 810.877 508.427, 840 479.399, 840 442.500 C 840 431.805, 837.925 422.885, 833.254 413.500 C 828.803 404.559, 825.463 400.402, 810.064 384.641 C 772.603 346.300, 722.744 312.410, 671.755 290.632 C 615.865 266.760, 550.144 255.011, 487.500 257.691 M 491.983 410.072 C 436.827 413.818, 383.462 435.180, 341.122 470.461 C 328.624 480.876, 300.940 508.037, 293.799 516.891 C 282.973 530.313, 278 544.356, 278 561.500 C 278 573.651, 279.903 581.873, 285.290 593 C 288.643 599.925, 291.086 603.188, 298.473 610.610 C 306.024 618.196, 308.961 620.393, 316.021 623.736 C 328.061 629.438, 335.645 631.247, 347.515 631.249 C 362.534 631.251, 375.474 627.224, 388 618.651 C 390.475 616.957, 401.275 607.001, 412 596.526 C 422.725 586.051, 434.575 575.298, 438.333 572.631 C 467.490 551.934, 505.679 544.927, 540.469 553.890 C 554.912 557.611, 571.166 565.279, 582.552 573.743 C 586.923 576.993, 597.142 586.012, 605.260 593.785 C 624.503 612.210, 630.441 616.224, 645.500 620.985 C 654.551 623.847, 671.363 624.174, 681 621.675 C 704.961 615.463, 723.821 597.538, 731.161 574 C 733.124 567.705, 733.492 564.412, 733.453 553.500 C 733.412 542.100, 733.080 539.565, 730.761 532.904 C 727.045 522.226, 722.348 514.696, 712.654 503.871 C 661.277 446.504, 598.395 415.010, 525.303 410.038 C 509.106 408.936, 508.696 408.937, 491.983 410.072 M 487.366 584.570 C 451.381 590.615, 421.480 617.401, 410.349 653.562 C 407.780 661.907, 407.597 663.694, 407.597 680.500 C 407.597 697.235, 407.788 699.117, 410.304 707.282 C 420.936 741.787, 447.130 766.610, 482 775.226 C 493.333 778.027, 513.037 778.213, 524.500 775.629 C 557.039 768.293, 584.741 743.990, 595.426 713.404 C 599.919 700.545, 601.301 690.942, 600.726 676.581 C 600.135 661.815, 597.903 651.988, 592.467 640.222 C 573.772 599.759, 531.185 577.209, 487.366 584.570" stroke="none" fill="black" fill-rule="evenodd"/>
</svg>